<svg width="73" height="60" viewBox="0 0 73 60" fill="none" xmlns="http://www.w3.org/2000/svg">
<path d="M0.990234 57V48.4687H3.7793C4.70508 48.4687 5.40039 48.6601 5.86523 49.043C6.33398 49.4258 6.56836 49.9922 6.56836 50.7422C6.56836 51.1406 6.45508 51.4941 6.22852 51.8027C6.00195 52.1074 5.69336 52.3437 5.30273 52.5117C5.76367 52.6406 6.12695 52.8867 6.39258 53.25C6.66211 53.6094 6.79688 54.039 6.79688 54.539C6.79688 55.3047 6.54883 55.9062 6.05273 56.3437C5.55664 56.7812 4.85547 57 3.94922 57H0.990234ZM2.11523 53.0098V56.0801H3.97266C4.49609 56.0801 4.9082 55.9453 5.20898 55.6758C5.51367 55.4023 5.66602 55.0273 5.66602 54.5508C5.66602 53.5234 5.10742 53.0098 3.99023 53.0098H2.11523ZM2.11523 52.1074H3.81445C4.30664 52.1074 4.69922 51.9844 4.99219 51.7383C5.28906 51.4922 5.4375 51.1582 5.4375 50.7363C5.4375 50.2676 5.30078 49.9277 5.02734 49.7168C4.75391 49.5019 4.33789 49.3945 3.7793 49.3945H2.11523V52.1074ZM12.2109 57C12.1484 56.875 12.0977 56.6523 12.0586 56.332C11.5547 56.8555 10.9531 57.1172 10.2539 57.1172C9.62891 57.1172 9.11523 56.9414 8.71289 56.5898C8.31445 56.2344 8.11523 55.7851 8.11523 55.2422C8.11523 54.582 8.36523 54.0703 8.86523 53.707C9.36914 53.3398 10.0762 53.1562 10.9863 53.1562H12.041V52.6582C12.041 52.2793 11.9277 51.9785 11.7012 51.7558C11.4746 51.5293 11.1406 51.416 10.6992 51.416C10.3125 51.416 9.98828 51.5137 9.72656 51.709C9.46484 51.9043 9.33398 52.1406 9.33398 52.418H8.24414C8.24414 52.1015 8.35547 51.7969 8.57812 51.5039C8.80469 51.207 9.10938 50.9726 9.49219 50.8008C9.87891 50.6289 10.3027 50.543 10.7637 50.543C11.4941 50.543 12.0664 50.7265 12.4805 51.0937C12.8945 51.457 13.1094 51.959 13.125 52.5996V55.5176C13.125 56.0996 13.1992 56.5625 13.3477 56.9062V57H12.2109ZM10.4121 56.1738C10.752 56.1738 11.0742 56.0859 11.3789 55.9101C11.6836 55.7344 11.9043 55.5058 12.041 55.2246V53.9238H11.1914C9.86328 53.9238 9.19922 54.3125 9.19922 55.0898C9.19922 55.4297 9.3125 55.6953 9.53906 55.8867C9.76562 56.0781 10.0566 56.1738 10.4121 56.1738ZM20.1797 53.9004C20.1797 54.8652 19.959 55.6426 19.5176 56.2324C19.0762 56.8223 18.4785 57.1172 17.7246 57.1172C16.9551 57.1172 16.3496 56.873 15.9082 56.3848V59.4375H14.8242V50.6601H15.8145L15.8672 51.3633C16.3086 50.8164 16.9219 50.543 17.707 50.543C18.4688 50.543 19.0703 50.8301 19.5117 51.4043C19.957 51.9785 20.1797 52.7773 20.1797 53.8008V53.9004ZM19.0957 53.7773C19.0957 53.0625 18.9434 52.498 18.6387 52.084C18.334 51.6699 17.916 51.4629 17.3848 51.4629C16.7285 51.4629 16.2363 51.7539 15.9082 52.3359V55.3652C16.2324 55.9433 16.7285 56.2324 17.3965 56.2324C17.916 56.2324 18.3281 56.0273 18.6328 55.6172C18.9414 55.2031 19.0957 54.5898 19.0957 53.7773ZM25.6641 50.6601H26.748V57H25.6641V52.3769L22.7402 57H21.6562V50.6601H22.7402V55.289L25.6641 50.6601ZM32.4023 57C32.3398 56.875 32.2891 56.6523 32.25 56.332C31.7461 56.8555 31.1445 57.1172 30.4453 57.1172C29.8203 57.1172 29.3066 56.9414 28.9043 56.5898C28.5059 56.2344 28.3066 55.7851 28.3066 55.2422C28.3066 54.582 28.5566 54.0703 29.0566 53.707C29.5605 53.3398 30.2676 53.1562 31.1777 53.1562H32.2324V52.6582C32.2324 52.2793 32.1191 51.9785 31.8926 51.7558C31.666 51.5293 31.332 51.416 30.8906 51.416C30.5039 51.416 30.1797 51.5137 29.918 51.709C29.6562 51.9043 29.5254 52.1406 29.5254 52.418H28.4355C28.4355 52.1015 28.5469 51.7969 28.7695 51.5039C28.9961 51.207 29.3008 50.9726 29.6836 50.8008C30.0703 50.6289 30.4941 50.543 30.9551 50.543C31.6855 50.543 32.2578 50.7265 32.6719 51.0937C33.0859 51.457 33.3008 51.959 33.3164 52.5996V55.5176C33.3164 56.0996 33.3906 56.5625 33.5391 56.9062V57H32.4023ZM30.6035 56.1738C30.9434 56.1738 31.2656 56.0859 31.5703 55.9101C31.875 55.7344 32.0957 55.5058 32.2324 55.2246V53.9238H31.3828C30.0547 53.9238 29.3906 54.3125 29.3906 55.0898C29.3906 55.4297 29.5039 55.6953 29.7305 55.8867C29.957 56.0781 30.248 56.1738 30.6035 56.1738ZM40.1953 57H39.1113V54.293H36.1992V57H35.1094V50.6601H36.1992V53.4082H39.1113V50.6601H40.1953V57ZM46.6523 51.539H44.5254V57H43.4414V51.539H41.3555V50.6601H46.6523V51.539ZM54.8262 48.4629V49.3828H54.627C53.7832 49.3984 53.1113 49.6484 52.6113 50.1328C52.1113 50.6172 51.8223 51.2988 51.7441 52.1777C52.1934 51.6621 52.8066 51.4043 53.584 51.4043C54.3262 51.4043 54.918 51.666 55.3594 52.1894C55.8047 52.7129 56.0273 53.3887 56.0273 54.2168C56.0273 55.0957 55.7871 55.7988 55.3066 56.3262C54.8301 56.8535 54.1895 57.1172 53.3848 57.1172C52.5684 57.1172 51.9062 56.8047 51.3984 56.1797C50.8906 55.5508 50.6367 54.7422 50.6367 53.7539V53.3379C50.6367 51.7676 50.9707 50.5683 51.6387 49.7402C52.3105 48.9082 53.3086 48.4824 54.6328 48.4629H54.8262ZM53.4023 52.3066C53.0312 52.3066 52.6895 52.418 52.377 52.6406C52.0645 52.8633 51.8477 53.1426 51.7266 53.4785V53.8769C51.7266 54.5801 51.8848 55.1465 52.2012 55.5762C52.5176 56.0058 52.9121 56.2207 53.3848 56.2207C53.873 56.2207 54.2559 56.041 54.5332 55.6816C54.8145 55.3223 54.9551 54.8515 54.9551 54.2695C54.9551 53.6836 54.8125 53.2109 54.5273 52.8515C54.2461 52.4883 53.8711 52.3066 53.4023 52.3066Z" fill="#9F8AE4"/>
<path d="M36.4165 23.5459H33.0459V36H29.3897V8.27344H33.0459V20.499H35.9024L45.5952 8.27344H50.1465L39.5586 21.7178L50.9273 36H46.4522L36.4165 23.5459Z" fill="#9F8AE4"/>
<path d="M7.66576 16.7812C8.03859 13.8523 9.14722 11.5974 10.9917 10.0166C12.8233 8.4484 15.2497 7.67978 18.2711 7.71077C21.5463 7.74436 24.162 8.94556 26.1183 11.3144C28.0619 13.6831 29.0135 16.8351 28.9731 20.7704L28.9458 23.4363C28.9194 26.0133 28.4391 28.2746 27.5051 30.2202C26.5583 32.1657 25.2354 33.6503 23.5363 34.6739C21.8371 35.7102 19.8768 36.217 17.6552 36.1942C14.71 36.164 12.3573 35.3147 10.597 33.6461C8.83652 31.9903 7.82521 29.7073 7.56304 26.7973L11.2381 26.835C11.5329 29.0471 12.2083 30.6537 13.2645 31.6548C14.308 32.6558 15.7819 33.1661 17.6861 33.1856C20.0219 33.2096 21.8651 32.3651 23.2157 30.6523C24.5537 28.9394 25.239 26.4898 25.2717 23.3034L25.2992 20.6185C25.3301 17.6099 24.7262 15.2105 23.4877 13.4203C22.2491 11.6302 20.5 10.7235 18.2404 10.7004C16.2093 10.6795 14.6495 11.1206 13.5611 12.0235C12.4598 12.939 11.7197 14.5375 11.3409 16.8189L7.66576 16.7812Z" fill="#9F8AE4"/>
</svg>
