<svg width="73" height="60" viewBox="0 0 73 60" fill="none" xmlns="http://www.w3.org/2000/svg">
<path d="M0.990234 57V48.4688H3.7793C4.70508 48.4688 5.40039 48.6602 5.86523 49.043C6.33398 49.4258 6.56836 49.9922 6.56836 50.7422C6.56836 51.1406 6.45508 51.4941 6.22852 51.8027C6.00195 52.1074 5.69336 52.3438 5.30273 52.5117C5.76367 52.6406 6.12695 52.8867 6.39258 53.25C6.66211 53.6094 6.79688 54.0391 6.79688 54.5391C6.79688 55.3047 6.54883 55.9062 6.05273 56.3438C5.55664 56.7812 4.85547 57 3.94922 57H0.990234ZM2.11523 53.0098V56.0801H3.97266C4.49609 56.0801 4.9082 55.9453 5.20898 55.6758C5.51367 55.4023 5.66602 55.0273 5.66602 54.5508C5.66602 53.5234 5.10742 53.0098 3.99023 53.0098H2.11523ZM2.11523 52.1074H3.81445C4.30664 52.1074 4.69922 51.9844 4.99219 51.7383C5.28906 51.4922 5.4375 51.1582 5.4375 50.7363C5.4375 50.2676 5.30078 49.9277 5.02734 49.7168C4.75391 49.502 4.33789 49.3945 3.7793 49.3945H2.11523V52.1074ZM12.2109 57C12.1484 56.875 12.0977 56.6523 12.0586 56.332C11.5547 56.8555 10.9531 57.1172 10.2539 57.1172C9.62891 57.1172 9.11523 56.9414 8.71289 56.5898C8.31445 56.2344 8.11523 55.7852 8.11523 55.2422C8.11523 54.582 8.36523 54.0703 8.86523 53.707C9.36914 53.3398 10.0762 53.1562 10.9863 53.1562H12.041V52.6582C12.041 52.2793 11.9277 51.9785 11.7012 51.7559C11.4746 51.5293 11.1406 51.416 10.6992 51.416C10.3125 51.416 9.98828 51.5137 9.72656 51.709C9.46484 51.9043 9.33398 52.1406 9.33398 52.418H8.24414C8.24414 52.1016 8.35547 51.7969 8.57812 51.5039C8.80469 51.207 9.10938 50.9727 9.49219 50.8008C9.87891 50.6289 10.3027 50.543 10.7637 50.543C11.4941 50.543 12.0664 50.7266 12.4805 51.0938C12.8945 51.457 13.1094 51.959 13.125 52.5996V55.5176C13.125 56.0996 13.1992 56.5625 13.3477 56.9062V57H12.2109ZM10.4121 56.1738C10.752 56.1738 11.0742 56.0859 11.3789 55.9102C11.6836 55.7344 11.9043 55.5059 12.041 55.2246V53.9238H11.1914C9.86328 53.9238 9.19922 54.3125 9.19922 55.0898C9.19922 55.4297 9.3125 55.6953 9.53906 55.8867C9.76562 56.0781 10.0566 56.1738 10.4121 56.1738ZM20.1797 53.9004C20.1797 54.8652 19.959 55.6426 19.5176 56.2324C19.0762 56.8223 18.4785 57.1172 17.7246 57.1172C16.9551 57.1172 16.3496 56.873 15.9082 56.3848V59.4375H14.8242V50.6602H15.8145L15.8672 51.3633C16.3086 50.8164 16.9219 50.543 17.707 50.543C18.4688 50.543 19.0703 50.8301 19.5117 51.4043C19.957 51.9785 20.1797 52.7773 20.1797 53.8008V53.9004ZM19.0957 53.7773C19.0957 53.0625 18.9434 52.498 18.6387 52.084C18.334 51.6699 17.916 51.4629 17.3848 51.4629C16.7285 51.4629 16.2363 51.7539 15.9082 52.3359V55.3652C16.2324 55.9434 16.7285 56.2324 17.3965 56.2324C17.916 56.2324 18.3281 56.0273 18.6328 55.6172C18.9414 55.2031 19.0957 54.5898 19.0957 53.7773ZM25.6641 50.6602H26.748V57H25.6641V52.377L22.7402 57H21.6562V50.6602H22.7402V55.2891L25.6641 50.6602ZM32.4023 57C32.3398 56.875 32.2891 56.6523 32.25 56.332C31.7461 56.8555 31.1445 57.1172 30.4453 57.1172C29.8203 57.1172 29.3066 56.9414 28.9043 56.5898C28.5059 56.2344 28.3066 55.7852 28.3066 55.2422C28.3066 54.582 28.5566 54.0703 29.0566 53.707C29.5605 53.3398 30.2676 53.1562 31.1777 53.1562H32.2324V52.6582C32.2324 52.2793 32.1191 51.9785 31.8926 51.7559C31.666 51.5293 31.332 51.416 30.8906 51.416C30.5039 51.416 30.1797 51.5137 29.918 51.709C29.6562 51.9043 29.5254 52.1406 29.5254 52.418H28.4355C28.4355 52.1016 28.5469 51.7969 28.7695 51.5039C28.9961 51.207 29.3008 50.9727 29.6836 50.8008C30.0703 50.6289 30.4941 50.543 30.9551 50.543C31.6855 50.543 32.2578 50.7266 32.6719 51.0938C33.0859 51.457 33.3008 51.959 33.3164 52.5996V55.5176C33.3164 56.0996 33.3906 56.5625 33.5391 56.9062V57H32.4023ZM30.6035 56.1738C30.9434 56.1738 31.2656 56.0859 31.5703 55.9102C31.875 55.7344 32.0957 55.5059 32.2324 55.2246V53.9238H31.3828C30.0547 53.9238 29.3906 54.3125 29.3906 55.0898C29.3906 55.4297 29.5039 55.6953 29.7305 55.8867C29.957 56.0781 30.248 56.1738 30.6035 56.1738ZM40.1953 57H39.1113V54.293H36.1992V57H35.1094V50.6602H36.1992V53.4082H39.1113V50.6602H40.1953V57ZM46.6523 51.5391H44.5254V57H43.4414V51.5391H41.3555V50.6602H46.6523V51.5391ZM51.0703 52.7227L51.5039 48.4688H55.875V49.4707H52.4238L52.166 51.7969C52.584 51.5508 53.0586 51.4277 53.5898 51.4277C54.3672 51.4277 54.9844 51.6855 55.4414 52.2012C55.8984 52.7129 56.127 53.4062 56.127 54.2812C56.127 55.1602 55.8887 55.8535 55.4121 56.3613C54.9395 56.8652 54.2773 57.1172 53.4258 57.1172C52.6719 57.1172 52.0566 56.9082 51.5801 56.4902C51.1035 56.0723 50.832 55.4941 50.7656 54.7559H51.791C51.8574 55.2441 52.0312 55.6133 52.3125 55.8633C52.5938 56.1094 52.9648 56.2324 53.4258 56.2324C53.9297 56.2324 54.3242 56.0605 54.6094 55.7168C54.8984 55.373 55.043 54.8984 55.043 54.293C55.043 53.7227 54.8867 53.2656 54.5742 52.9219C54.2656 52.5742 53.8535 52.4004 53.3379 52.4004C52.8652 52.4004 52.4941 52.5039 52.2246 52.7109L51.9375 52.9453L51.0703 52.7227Z" fill="#9F8AE4"/>
<line x1="26.5" y1="8" x2="26.5" y2="37" stroke="#9F8AE4" stroke-width="3"/>
<path d="M47.6133 27.2021C47.2705 30.1348 46.1851 32.4009 44.3569 34.0005C42.5415 35.5874 40.123 36.3809 37.1016 36.3809C33.8262 36.3809 31.1982 35.2065 29.2178 32.8579C27.25 30.5093 26.2661 27.3672 26.2661 23.4316V20.7656C26.2661 18.1885 26.7231 15.9224 27.6372 13.9673C28.564 12.0122 29.8716 10.5142 31.5601 9.47314C33.2485 8.41943 35.2036 7.89258 37.4253 7.89258C40.3706 7.89258 42.7319 8.71777 44.5093 10.3682C46.2866 12.0059 47.3213 14.2783 47.6133 17.1855H43.938C43.6206 14.9766 42.9287 13.377 41.8623 12.3867C40.8086 11.3965 39.3296 10.9014 37.4253 10.9014C35.0894 10.9014 33.2549 11.7646 31.9219 13.4912C30.6016 15.2178 29.9414 17.6743 29.9414 20.8608V23.5459C29.9414 26.5547 30.5698 28.9478 31.8267 30.7251C33.0835 32.5024 34.8418 33.3911 37.1016 33.3911C39.1328 33.3911 40.688 32.9341 41.7671 32.02C42.8589 31.0933 43.5825 29.4873 43.938 27.2021H47.6133Z" fill="#9F8AE4"/>
<path d="M15.4177 23.6546C12.2808 22.7572 9.99426 21.6556 8.55803 20.3498C7.13448 19.0313 6.42148 17.4072 6.41903 15.4775C6.41626 13.2939 7.2836 11.4901 9.02105 10.066C10.7712 8.62922 13.0427 7.90905 15.8357 7.9055C17.74 7.90308 19.4353 8.26909 20.9216 9.00353C22.4205 9.73796 23.5771 10.7521 24.3913 12.046C25.2181 13.3399 25.6325 14.7549 25.6344 16.291L21.9591 16.2957C21.957 14.6199 21.4221 13.3066 20.3545 12.3558C19.2869 11.3923 17.7819 10.9118 15.8395 10.9143C14.0368 10.9166 12.6281 11.3183 11.6135 12.1194C10.6116 12.9077 10.1115 14.0065 10.1133 15.4157C10.1147 16.5456 10.592 17.5035 11.5452 18.2894C12.511 19.0626 14.1432 19.7714 16.4419 20.416C18.7533 21.0605 20.5569 21.7755 21.8528 22.561C23.1614 23.3337 24.1274 24.2402 24.7508 25.2804C25.3869 26.3206 25.7059 27.5453 25.7076 28.9545C25.7105 31.2016 24.8368 33.0054 23.0866 34.366C21.3363 35.714 18.9949 36.3898 16.0623 36.3935C14.158 36.3959 12.3802 36.0364 10.7289 35.3148C9.07757 34.5806 7.80042 33.5793 6.89744 32.3109C6.00715 31.0425 5.56099 29.6022 5.55894 27.9899L9.23423 27.9852C9.23636 29.661 9.85377 30.9868 11.0865 31.9628C12.3318 32.9261 13.9892 33.4064 16.0585 33.4038C17.9882 33.4013 19.4667 33.0059 20.494 32.2175C21.5213 31.4291 22.0341 30.3557 22.0324 28.9973C22.0307 27.6389 21.5533 26.5921 20.6002 25.857C19.6471 25.1092 17.9196 24.375 15.4177 23.6546Z" fill="#9F8AE4"/>
</svg>
