<svg width="78" height="66" viewBox="0 0 78 66" fill="none" xmlns="http://www.w3.org/2000/svg">
<path d="M5.99023 63V54.4688H8.7793C9.70508 54.4688 10.4004 54.6602 10.8652 55.043C11.334 55.4258 11.5684 55.9922 11.5684 56.7422C11.5684 57.1406 11.4551 57.4941 11.2285 57.8027C11.002 58.1074 10.6934 58.3438 10.3027 58.5117C10.7637 58.6406 11.127 58.8867 11.3926 59.25C11.6621 59.6094 11.7969 60.0391 11.7969 60.5391C11.7969 61.3047 11.5488 61.9062 11.0527 62.3438C10.5566 62.7812 9.85547 63 8.94922 63H5.99023ZM7.11523 59.0098V62.0801H8.97266C9.49609 62.0801 9.9082 61.9453 10.209 61.6758C10.5137 61.4023 10.666 61.0273 10.666 60.5508C10.666 59.5234 10.1074 59.0098 8.99023 59.0098H7.11523ZM7.11523 58.1074H8.81445C9.30664 58.1074 9.69922 57.9844 9.99219 57.7383C10.2891 57.4922 10.4375 57.1582 10.4375 56.7363C10.4375 56.2676 10.3008 55.9277 10.0273 55.7168C9.75391 55.502 9.33789 55.3945 8.7793 55.3945H7.11523V58.1074ZM17.2109 63C17.1484 62.875 17.0977 62.6523 17.0586 62.332C16.5547 62.8555 15.9531 63.1172 15.2539 63.1172C14.6289 63.1172 14.1152 62.9414 13.7129 62.5898C13.3145 62.2344 13.1152 61.7852 13.1152 61.2422C13.1152 60.582 13.3652 60.0703 13.8652 59.707C14.3691 59.3398 15.0762 59.1562 15.9863 59.1562H17.041V58.6582C17.041 58.2793 16.9277 57.9785 16.7012 57.7559C16.4746 57.5293 16.1406 57.416 15.6992 57.416C15.3125 57.416 14.9883 57.5137 14.7266 57.709C14.4648 57.9043 14.334 58.1406 14.334 58.418H13.2441C13.2441 58.1016 13.3555 57.7969 13.5781 57.5039C13.8047 57.207 14.1094 56.9727 14.4922 56.8008C14.8789 56.6289 15.3027 56.543 15.7637 56.543C16.4941 56.543 17.0664 56.7266 17.4805 57.0938C17.8945 57.457 18.1094 57.959 18.125 58.5996V61.5176C18.125 62.0996 18.1992 62.5625 18.3477 62.9062V63H17.2109ZM15.4121 62.1738C15.752 62.1738 16.0742 62.0859 16.3789 61.9102C16.6836 61.7344 16.9043 61.5059 17.041 61.2246V59.9238H16.1914C14.8633 59.9238 14.1992 60.3125 14.1992 61.0898C14.1992 61.4297 14.3125 61.6953 14.5391 61.8867C14.7656 62.0781 15.0566 62.1738 15.4121 62.1738ZM25.1797 59.9004C25.1797 60.8652 24.959 61.6426 24.5176 62.2324C24.0762 62.8223 23.4785 63.1172 22.7246 63.1172C21.9551 63.1172 21.3496 62.873 20.9082 62.3848V65.4375H19.8242V56.6602H20.8145L20.8672 57.3633C21.3086 56.8164 21.9219 56.543 22.707 56.543C23.4688 56.543 24.0703 56.8301 24.5117 57.4043C24.957 57.9785 25.1797 58.7773 25.1797 59.8008V59.9004ZM24.0957 59.7773C24.0957 59.0625 23.9434 58.498 23.6387 58.084C23.334 57.6699 22.916 57.4629 22.3848 57.4629C21.7285 57.4629 21.2363 57.7539 20.9082 58.3359V61.3652C21.2324 61.9434 21.7285 62.2324 22.3965 62.2324C22.916 62.2324 23.3281 62.0273 23.6328 61.6172C23.9414 61.2031 24.0957 60.5898 24.0957 59.7773ZM30.6641 56.6602H31.748V63H30.6641V58.377L27.7402 63H26.6562V56.6602H27.7402V61.2891L30.6641 56.6602ZM37.4023 63C37.3398 62.875 37.2891 62.6523 37.25 62.332C36.7461 62.8555 36.1445 63.1172 35.4453 63.1172C34.8203 63.1172 34.3066 62.9414 33.9043 62.5898C33.5059 62.2344 33.3066 61.7852 33.3066 61.2422C33.3066 60.582 33.5566 60.0703 34.0566 59.707C34.5605 59.3398 35.2676 59.1562 36.1777 59.1562H37.2324V58.6582C37.2324 58.2793 37.1191 57.9785 36.8926 57.7559C36.666 57.5293 36.332 57.416 35.8906 57.416C35.5039 57.416 35.1797 57.5137 34.918 57.709C34.6562 57.9043 34.5254 58.1406 34.5254 58.418H33.4355C33.4355 58.1016 33.5469 57.7969 33.7695 57.5039C33.9961 57.207 34.3008 56.9727 34.6836 56.8008C35.0703 56.6289 35.4941 56.543 35.9551 56.543C36.6855 56.543 37.2578 56.7266 37.6719 57.0938C38.0859 57.457 38.3008 57.959 38.3164 58.5996V61.5176C38.3164 62.0996 38.3906 62.5625 38.5391 62.9062V63H37.4023ZM35.6035 62.1738C35.9434 62.1738 36.2656 62.0859 36.5703 61.9102C36.875 61.7344 37.0957 61.5059 37.2324 61.2246V59.9238H36.3828C35.0547 59.9238 34.3906 60.3125 34.3906 61.0898C34.3906 61.4297 34.5039 61.6953 34.7305 61.8867C34.957 62.0781 35.248 62.1738 35.6035 62.1738ZM45.1953 63H44.1113V60.293H41.1992V63H40.1094V56.6602H41.1992V59.4082H44.1113V56.6602H45.1953V63ZM51.6523 57.5391H49.5254V63H48.4414V57.5391H46.3555V56.6602H51.6523V57.5391ZM57.1484 58.207H57.9629C58.4746 58.1992 58.877 58.0645 59.1699 57.8027C59.4629 57.541 59.6094 57.1875 59.6094 56.7422C59.6094 55.7422 59.1113 55.2422 58.1152 55.2422C57.6465 55.2422 57.2715 55.377 56.9902 55.6465C56.7129 55.9121 56.5742 56.2656 56.5742 56.707H55.4902C55.4902 56.0312 55.7363 55.4707 56.2285 55.0254C56.7246 54.5762 57.3535 54.3516 58.1152 54.3516C58.9199 54.3516 59.5508 54.5645 60.0078 54.9902C60.4648 55.416 60.6934 56.0078 60.6934 56.7656C60.6934 57.1367 60.5723 57.4961 60.3301 57.8438C60.0918 58.1914 59.7656 58.4512 59.3516 58.623C59.8203 58.7715 60.1816 59.0176 60.4355 59.3613C60.6934 59.7051 60.8223 60.125 60.8223 60.6211C60.8223 61.3867 60.5723 61.9941 60.0723 62.4434C59.5723 62.8926 58.9219 63.1172 58.1211 63.1172C57.3203 63.1172 56.668 62.9004 56.1641 62.4668C55.6641 62.0332 55.4141 61.4609 55.4141 60.75H56.5039C56.5039 61.1992 56.6504 61.5586 56.9434 61.8281C57.2363 62.0977 57.6289 62.2324 58.1211 62.2324C58.6445 62.2324 59.0449 62.0957 59.3223 61.8223C59.5996 61.5488 59.7383 61.1562 59.7383 60.6445C59.7383 60.1484 59.5859 59.7676 59.2812 59.502C58.9766 59.2363 58.5371 59.0996 57.9629 59.0918H57.1484V58.207Z" fill="#9F8AE4"/>
<line x1="26.0327" y1="9" x2="26.0326" y2="39" stroke="#9F8AE4" stroke-width="4"/>
<path d="M46.9645 32.5208C47.3371 29.3477 48.5129 26.8963 50.492 25.1665C52.4573 23.4504 55.0746 22.5933 58.344 22.595C61.8882 22.5969 64.731 23.8691 66.8726 26.4116C69.0005 28.9541 70.0633 32.3546 70.061 36.6131L70.0595 39.4978C70.058 42.2864 69.5621 44.7382 68.5719 46.8532C67.568 48.9681 66.1522 50.5883 64.3246 51.7138C62.4969 52.853 60.3811 53.4219 57.9772 53.4206C54.7902 53.4189 52.2356 52.5246 50.3134 50.7378C48.3912 48.9647 47.2729 46.5052 46.9587 43.3592L50.9355 43.3614C51.2776 45.7518 52.0254 47.4831 53.1787 48.5552C54.3183 49.6273 55.9184 50.1639 57.9789 50.165C60.5065 50.1663 62.492 49.2333 63.9354 47.3658C65.3651 45.4984 66.0808 42.8406 66.0827 39.3927L66.0842 36.4873C66.086 33.2316 65.4074 30.6418 64.0485 28.7179C62.6895 26.794 60.7875 25.8314 58.3423 25.8301C56.1444 25.8289 54.4613 26.3225 53.2932 27.311C52.1112 28.3131 51.3273 30.0505 50.9413 32.5229L46.9645 32.5208Z" fill="#9F8AE4"/>
<path d="M15.7425 22.4844L19.3897 22.4864L19.3969 9.0104L23.3532 9.01252L23.3371 39.0141L19.3808 39.012L19.3879 25.7832L16.2971 25.7816L5.80181 39.0047L0.877101 39.002L12.3416 24.4607L0.0483898 9.00001L4.89067 9.00261L15.7425 22.4844Z" fill="#9F8AE4"/>
<path d="M51.5835 29.4803C51.2126 32.6535 50.038 35.1056 48.0599 36.8364C46.0955 38.5535 43.4786 39.4121 40.2092 39.4121C36.6651 39.4121 33.8215 38.1414 31.6786 35.6001C29.5493 33.0588 28.4847 29.6589 28.4847 25.4004V22.5156C28.4847 19.727 28.9793 17.275 29.9683 15.1595C30.9711 13.044 32.386 11.423 34.213 10.2966C36.0401 9.15641 38.1556 8.58633 40.5595 8.58633C43.7465 8.58633 46.3016 9.47923 48.2248 11.265C50.1479 13.0371 51.2675 15.496 51.5835 18.6418H47.6066C47.2632 16.2516 46.5145 14.5207 45.3606 13.4492C44.2204 12.3777 42.6201 11.842 40.5595 11.842C38.0319 11.842 36.0469 12.7761 34.6045 14.6443C33.1759 16.5126 32.4616 19.1707 32.4616 22.6187V25.524C32.4616 28.7797 33.1416 31.3691 34.5015 33.2923C35.8615 35.2155 37.764 36.1771 40.2092 36.1771C42.4071 36.1771 44.0899 35.6825 45.2576 34.6935C46.439 33.6907 47.222 31.9529 47.6066 29.4803H51.5835Z" fill="#9F8AE4"/>
</svg>
