<svg width="73" height="67" viewBox="0 0 73 67" fill="none" xmlns="http://www.w3.org/2000/svg">
<path d="M0.990234 64V55.4688H3.7793C4.70508 55.4688 5.40039 55.6602 5.86523 56.043C6.33398 56.4258 6.56836 56.9922 6.56836 57.7422C6.56836 58.1406 6.45508 58.4941 6.22852 58.8027C6.00195 59.1074 5.69336 59.3438 5.30273 59.5117C5.76367 59.6406 6.12695 59.8867 6.39258 60.25C6.66211 60.6094 6.79688 61.0391 6.79688 61.5391C6.79688 62.3047 6.54883 62.9062 6.05273 63.3438C5.55664 63.7812 4.85547 64 3.94922 64H0.990234ZM2.11523 60.0098V63.0801H3.97266C4.49609 63.0801 4.9082 62.9453 5.20898 62.6758C5.51367 62.4023 5.66602 62.0273 5.66602 61.5508C5.66602 60.5234 5.10742 60.0098 3.99023 60.0098H2.11523ZM2.11523 59.1074H3.81445C4.30664 59.1074 4.69922 58.9844 4.99219 58.7383C5.28906 58.4922 5.4375 58.1582 5.4375 57.7363C5.4375 57.2676 5.30078 56.9277 5.02734 56.7168C4.75391 56.502 4.33789 56.3945 3.7793 56.3945H2.11523V59.1074ZM12.2109 64C12.1484 63.875 12.0977 63.6523 12.0586 63.332C11.5547 63.8555 10.9531 64.1172 10.2539 64.1172C9.62891 64.1172 9.11523 63.9414 8.71289 63.5898C8.31445 63.2344 8.11523 62.7852 8.11523 62.2422C8.11523 61.582 8.36523 61.0703 8.86523 60.707C9.36914 60.3398 10.0762 60.1562 10.9863 60.1562H12.041V59.6582C12.041 59.2793 11.9277 58.9785 11.7012 58.7559C11.4746 58.5293 11.1406 58.416 10.6992 58.416C10.3125 58.416 9.98828 58.5137 9.72656 58.709C9.46484 58.9043 9.33398 59.1406 9.33398 59.418H8.24414C8.24414 59.1016 8.35547 58.7969 8.57812 58.5039C8.80469 58.207 9.10938 57.9727 9.49219 57.8008C9.87891 57.6289 10.3027 57.543 10.7637 57.543C11.4941 57.543 12.0664 57.7266 12.4805 58.0938C12.8945 58.457 13.1094 58.959 13.125 59.5996V62.5176C13.125 63.0996 13.1992 63.5625 13.3477 63.9062V64H12.2109ZM10.4121 63.1738C10.752 63.1738 11.0742 63.0859 11.3789 62.9102C11.6836 62.7344 11.9043 62.5059 12.041 62.2246V60.9238H11.1914C9.86328 60.9238 9.19922 61.3125 9.19922 62.0898C9.19922 62.4297 9.3125 62.6953 9.53906 62.8867C9.76562 63.0781 10.0566 63.1738 10.4121 63.1738ZM20.1797 60.9004C20.1797 61.8652 19.959 62.6426 19.5176 63.2324C19.0762 63.8223 18.4785 64.1172 17.7246 64.1172C16.9551 64.1172 16.3496 63.873 15.9082 63.3848V66.4375H14.8242V57.6602H15.8145L15.8672 58.3633C16.3086 57.8164 16.9219 57.543 17.707 57.543C18.4688 57.543 19.0703 57.8301 19.5117 58.4043C19.957 58.9785 20.1797 59.7773 20.1797 60.8008V60.9004ZM19.0957 60.7773C19.0957 60.0625 18.9434 59.498 18.6387 59.084C18.334 58.6699 17.916 58.4629 17.3848 58.4629C16.7285 58.4629 16.2363 58.7539 15.9082 59.3359V62.3652C16.2324 62.9434 16.7285 63.2324 17.3965 63.2324C17.916 63.2324 18.3281 63.0273 18.6328 62.6172C18.9414 62.2031 19.0957 61.5898 19.0957 60.7773ZM25.6641 57.6602H26.748V64H25.6641V59.377L22.7402 64H21.6562V57.6602H22.7402V62.2891L25.6641 57.6602ZM32.4023 64C32.3398 63.875 32.2891 63.6523 32.25 63.332C31.7461 63.8555 31.1445 64.1172 30.4453 64.1172C29.8203 64.1172 29.3066 63.9414 28.9043 63.5898C28.5059 63.2344 28.3066 62.7852 28.3066 62.2422C28.3066 61.582 28.5566 61.0703 29.0566 60.707C29.5605 60.3398 30.2676 60.1562 31.1777 60.1562H32.2324V59.6582C32.2324 59.2793 32.1191 58.9785 31.8926 58.7559C31.666 58.5293 31.332 58.416 30.8906 58.416C30.5039 58.416 30.1797 58.5137 29.918 58.709C29.6562 58.9043 29.5254 59.1406 29.5254 59.418H28.4355C28.4355 59.1016 28.5469 58.7969 28.7695 58.5039C28.9961 58.207 29.3008 57.9727 29.6836 57.8008C30.0703 57.6289 30.4941 57.543 30.9551 57.543C31.6855 57.543 32.2578 57.7266 32.6719 58.0938C33.0859 58.457 33.3008 58.959 33.3164 59.5996V62.5176C33.3164 63.0996 33.3906 63.5625 33.5391 63.9062V64H32.4023ZM30.6035 63.1738C30.9434 63.1738 31.2656 63.0859 31.5703 62.9102C31.875 62.7344 32.0957 62.5059 32.2324 62.2246V60.9238H31.3828C30.0547 60.9238 29.3906 61.3125 29.3906 62.0898C29.3906 62.4297 29.5039 62.6953 29.7305 62.8867C29.957 63.0781 30.248 63.1738 30.6035 63.1738ZM40.1953 64H39.1113V61.293H36.1992V64H35.1094V57.6602H36.1992V60.4082H39.1113V57.6602H40.1953V64ZM46.6523 58.5391H44.5254V64H43.4414V58.5391H41.3555V57.6602H46.6523V58.5391ZM56.1621 64H50.5723V63.2207L53.5254 59.9395C53.9629 59.4434 54.2637 59.041 54.4277 58.7324C54.5957 58.4199 54.6797 58.0977 54.6797 57.7656C54.6797 57.3203 54.5449 56.9551 54.2754 56.6699C54.0059 56.3848 53.6465 56.2422 53.1973 56.2422C52.6582 56.2422 52.2383 56.3965 51.9375 56.7051C51.6406 57.0098 51.4922 57.4355 51.4922 57.9824H50.4082C50.4082 57.1973 50.6602 56.5625 51.1641 56.0781C51.6719 55.5938 52.3496 55.3516 53.1973 55.3516C53.9902 55.3516 54.6172 55.5605 55.0781 55.9785C55.5391 56.3926 55.7695 56.9453 55.7695 57.6367C55.7695 58.4766 55.2344 59.4766 54.1641 60.6367L51.8789 63.1152H56.1621V64Z" fill="#9F8AE4"/>
<line x1="31.0001" y1="9" x2="31" y2="39" stroke="#9F8AE4" stroke-width="4"/>
<path d="M20.7099 22.4844L24.357 22.4864L24.3643 9.0104L28.3205 9.01252L28.3044 39.0141L24.3482 39.012L24.3553 25.7832L21.2644 25.7816L10.7692 39.0047L5.84445 39.002L17.3089 24.4607L5.01574 9.00001L9.85802 9.00261L20.7099 22.4844Z" fill="#9F8AE4"/>
<path d="M56.5508 29.4803C56.1799 32.6535 55.0054 35.1056 53.0273 36.8364C51.0629 38.5535 48.446 39.4121 45.1766 39.4121C41.6324 39.4121 38.7889 38.1414 36.6459 35.6001C34.5167 33.0588 33.4521 29.6589 33.4521 25.4004V22.5156C33.4521 19.727 33.9466 17.275 34.9357 15.1595C35.9385 13.044 37.3534 11.423 39.1804 10.2966C41.0074 9.15641 43.1229 8.58633 45.5269 8.58633C48.7139 8.58633 51.2689 9.47923 53.1921 11.265C55.1153 13.0371 56.2348 15.496 56.5508 18.6418H52.5739C52.2305 16.2516 51.4819 14.5207 50.3279 13.4492C49.1878 12.3777 47.5874 11.842 45.5269 11.842C42.9993 11.842 41.0143 12.7761 39.5719 14.6443C38.1432 16.5126 37.4289 19.1707 37.4289 22.6187V25.524C37.4289 28.7797 38.1089 31.3691 39.4689 33.2923C40.8288 35.2155 42.7314 36.1771 45.1766 36.1771C47.3745 36.1771 49.0573 35.6825 50.2249 34.6935C51.4063 33.6907 52.1893 31.9529 52.5739 29.4803H56.5508Z" fill="#9F8AE4"/>
</svg>
