<svg width="73" height="55" viewBox="0 0 73 55" fill="none" xmlns="http://www.w3.org/2000/svg">
<path d="M0.990234 52V43.4688H3.7793C4.70508 43.4688 5.40039 43.6602 5.86523 44.043C6.33398 44.4258 6.56836 44.9922 6.56836 45.7422C6.56836 46.1406 6.45508 46.4941 6.22852 46.8027C6.00195 47.1074 5.69336 47.3438 5.30273 47.5117C5.76367 47.6406 6.12695 47.8867 6.39258 48.25C6.66211 48.6094 6.79688 49.0391 6.79688 49.5391C6.79688 50.3047 6.54883 50.9062 6.05273 51.3438C5.55664 51.7812 4.85547 52 3.94922 52H0.990234ZM2.11523 48.0098V51.0801H3.97266C4.49609 51.0801 4.9082 50.9453 5.20898 50.6758C5.51367 50.4023 5.66602 50.0273 5.66602 49.5508C5.66602 48.5234 5.10742 48.0098 3.99023 48.0098H2.11523ZM2.11523 47.1074H3.81445C4.30664 47.1074 4.69922 46.9844 4.99219 46.7383C5.28906 46.4922 5.4375 46.1582 5.4375 45.7363C5.4375 45.2676 5.30078 44.9277 5.02734 44.7168C4.75391 44.502 4.33789 44.3945 3.7793 44.3945H2.11523V47.1074ZM12.2109 52C12.1484 51.875 12.0977 51.6523 12.0586 51.332C11.5547 51.8555 10.9531 52.1172 10.2539 52.1172C9.62891 52.1172 9.11523 51.9414 8.71289 51.5898C8.31445 51.2344 8.11523 50.7852 8.11523 50.2422C8.11523 49.582 8.36523 49.0703 8.86523 48.707C9.36914 48.3398 10.0762 48.1562 10.9863 48.1562H12.041V47.6582C12.041 47.2793 11.9277 46.9785 11.7012 46.7559C11.4746 46.5293 11.1406 46.416 10.6992 46.416C10.3125 46.416 9.98828 46.5137 9.72656 46.709C9.46484 46.9043 9.33398 47.1406 9.33398 47.418H8.24414C8.24414 47.1016 8.35547 46.7969 8.57812 46.5039C8.80469 46.207 9.10938 45.9727 9.49219 45.8008C9.87891 45.6289 10.3027 45.543 10.7637 45.543C11.4941 45.543 12.0664 45.7266 12.4805 46.0938C12.8945 46.457 13.1094 46.959 13.125 47.5996V50.5176C13.125 51.0996 13.1992 51.5625 13.3477 51.9062V52H12.2109ZM10.4121 51.1738C10.752 51.1738 11.0742 51.0859 11.3789 50.9102C11.6836 50.7344 11.9043 50.5059 12.041 50.2246V48.9238H11.1914C9.86328 48.9238 9.19922 49.3125 9.19922 50.0898C9.19922 50.4297 9.3125 50.6953 9.53906 50.8867C9.76562 51.0781 10.0566 51.1738 10.4121 51.1738ZM20.1797 48.9004C20.1797 49.8652 19.959 50.6426 19.5176 51.2324C19.0762 51.8223 18.4785 52.1172 17.7246 52.1172C16.9551 52.1172 16.3496 51.873 15.9082 51.3848V54.4375H14.8242V45.6602H15.8145L15.8672 46.3633C16.3086 45.8164 16.9219 45.543 17.707 45.543C18.4688 45.543 19.0703 45.8301 19.5117 46.4043C19.957 46.9785 20.1797 47.7773 20.1797 48.8008V48.9004ZM19.0957 48.7773C19.0957 48.0625 18.9434 47.498 18.6387 47.084C18.334 46.6699 17.916 46.4629 17.3848 46.4629C16.7285 46.4629 16.2363 46.7539 15.9082 47.3359V50.3652C16.2324 50.9434 16.7285 51.2324 17.3965 51.2324C17.916 51.2324 18.3281 51.0273 18.6328 50.6172C18.9414 50.2031 19.0957 49.5898 19.0957 48.7773ZM25.6641 45.6602H26.748V52H25.6641V47.377L22.7402 52H21.6562V45.6602H22.7402V50.2891L25.6641 45.6602ZM32.4023 52C32.3398 51.875 32.2891 51.6523 32.25 51.332C31.7461 51.8555 31.1445 52.1172 30.4453 52.1172C29.8203 52.1172 29.3066 51.9414 28.9043 51.5898C28.5059 51.2344 28.3066 50.7852 28.3066 50.2422C28.3066 49.582 28.5566 49.0703 29.0566 48.707C29.5605 48.3398 30.2676 48.1562 31.1777 48.1562H32.2324V47.6582C32.2324 47.2793 32.1191 46.9785 31.8926 46.7559C31.666 46.5293 31.332 46.416 30.8906 46.416C30.5039 46.416 30.1797 46.5137 29.918 46.709C29.6562 46.9043 29.5254 47.1406 29.5254 47.418H28.4355C28.4355 47.1016 28.5469 46.7969 28.7695 46.5039C28.9961 46.207 29.3008 45.9727 29.6836 45.8008C30.0703 45.6289 30.4941 45.543 30.9551 45.543C31.6855 45.543 32.2578 45.7266 32.6719 46.0938C33.0859 46.457 33.3008 46.959 33.3164 47.5996V50.5176C33.3164 51.0996 33.3906 51.5625 33.5391 51.9062V52H32.4023ZM30.6035 51.1738C30.9434 51.1738 31.2656 51.0859 31.5703 50.9102C31.875 50.7344 32.0957 50.5059 32.2324 50.2246V48.9238H31.3828C30.0547 48.9238 29.3906 49.3125 29.3906 50.0898C29.3906 50.4297 29.5039 50.6953 29.7305 50.8867C29.957 51.0781 30.248 51.1738 30.6035 51.1738ZM40.1953 52H39.1113V49.293H36.1992V52H35.1094V45.6602H36.1992V48.4082H39.1113V45.6602H40.1953V52ZM46.6523 46.5391H44.5254V52H43.4414V46.5391H41.3555V45.6602H46.6523V46.5391ZM56.0801 44.0781L52.5469 52H51.4102L54.9316 44.3594H50.3145V43.4688H56.0801V44.0781Z" fill="#9F8AE4"/>
<path d="M14.4934 18.8451H11.7451V29H8.76384V6.39219H11.7451V16.3607H14.0742L21.9776 6.39219H25.6886L17.0554 17.3545L26.3253 29H22.6763L14.4934 18.8451Z" fill="#9F8AE4"/>
<path d="M14.7192 34.2884C15.131 32.84 15.6377 31.7838 16.2393 31.12C16.8468 30.462 17.5959 30.1317 18.4865 30.1291C19.4943 30.1262 20.3275 30.5252 20.9861 31.326C21.6505 32.1327 21.9846 33.1806 21.9883 34.4696C21.9908 35.3485 21.8232 36.1312 21.4853 36.8178C21.1475 37.5101 20.6803 38.0447 20.0837 38.4214C19.4871 38.804 18.8344 38.9963 18.1254 38.9984L18.1205 37.3021C18.8939 37.2998 19.4996 37.052 19.9377 36.5585C20.3816 36.0651 20.6022 35.3701 20.5996 34.4736C20.5972 33.6416 20.4108 32.9917 20.0403 32.5241C19.6757 32.0622 19.1682 31.8322 18.5178 31.8341C17.9963 31.8356 17.5546 32.0566 17.1925 32.4971C16.8364 32.9435 16.5105 33.6973 16.2147 34.7587C15.9189 35.826 15.5903 36.659 15.2287 37.2577C14.8731 37.8622 14.4554 38.3088 13.9758 38.5972C13.4961 38.8916 12.9311 39.0397 12.2808 39.0416C11.2436 39.0446 10.4105 38.6427 9.78117 37.8359C9.15774 37.0291 8.84408 35.949 8.84017 34.5955C8.83763 33.7166 9.00226 32.8958 9.33404 32.1331C9.67168 31.3704 10.1329 30.7802 10.7176 30.3625C11.3024 29.9506 11.9668 29.7436 12.7109 29.7415L12.7158 31.4378C11.9424 31.44 11.3309 31.7259 10.8814 32.2956C10.4377 32.8711 10.2173 33.6364 10.22 34.5915C10.2226 35.4821 10.4062 36.1642 10.7709 36.6377C11.1355 37.1113 11.6313 37.3472 12.2583 37.3454C12.8852 37.3436 13.368 37.1224 13.7066 36.682C14.051 36.2416 14.3885 35.4437 14.7192 34.2884Z" fill="#9F8AE4"/>
<path d="M33.2305 26.6185L34.256 27.6762L34.2749 31.016L35.9009 31.0067L35.8244 17.507L34.1985 17.5162L34.2447 25.6811L33.3687 24.6401L30.3891 21.528L28.4116 21.5392L32.1342 25.4909L28.0348 31.0513L29.942 31.0405L33.2305 26.6185Z" fill="#9F8AE4"/>
<path d="M22.6658 18.7812C23.0386 15.8523 24.1472 13.5974 25.9917 12.0166C27.8233 10.4484 30.2497 9.6798 33.2711 9.71078C36.5463 9.74437 39.162 10.9456 41.1183 13.3144C43.0619 15.6831 44.0135 18.8351 43.9732 22.7704L43.9458 25.4363C43.9194 28.0133 43.4391 30.2746 42.5051 32.2202C41.5583 34.1657 40.2354 35.6503 38.5363 36.6739C36.8371 37.7103 34.8768 38.217 32.6552 38.1942C29.71 38.164 27.3573 37.3147 25.597 35.6461C23.8365 33.9903 22.8252 31.7074 22.5631 28.7973L26.2382 28.835C26.5329 31.0471 27.2083 32.6537 28.2645 33.6548C29.308 34.6558 30.7819 35.1661 32.6861 35.1856C35.0219 35.2096 36.8651 34.3651 38.2157 32.6523C39.5537 30.9394 40.239 28.4898 40.2717 25.3034L40.2992 22.6185C40.3301 19.6099 39.7262 17.2105 38.4877 15.4203C37.2492 13.6302 35.5001 12.7235 33.2404 12.7004C31.2093 12.6795 29.6495 13.1206 28.5611 14.0235C27.4598 14.9391 26.7198 16.5375 26.3409 18.8189L22.6658 18.7812Z" fill="#9F8AE4"/>
</svg>
