<svg width="73" height="63" viewBox="0 0 73 63" fill="none" xmlns="http://www.w3.org/2000/svg">
<path d="M0.990234 60V51.4687H3.7793C4.70508 51.4687 5.40039 51.6601 5.86523 52.0429C6.33398 52.4258 6.56836 52.9922 6.56836 53.7422C6.56836 54.1406 6.45508 54.4941 6.22852 54.8027C6.00195 55.1074 5.69336 55.3437 5.30273 55.5117C5.76367 55.6406 6.12695 55.8867 6.39258 56.25C6.66211 56.6094 6.79688 57.039 6.79688 57.539C6.79688 58.3047 6.54883 58.9062 6.05273 59.3437C5.55664 59.7812 4.85547 60 3.94922 60H0.990234ZM2.11523 56.0097V59.0801H3.97266C4.49609 59.0801 4.9082 58.9453 5.20898 58.6758C5.51367 58.4023 5.66602 58.0273 5.66602 57.5508C5.66602 56.5234 5.10742 56.0097 3.99023 56.0097H2.11523ZM2.11523 55.1074H3.81445C4.30664 55.1074 4.69922 54.9844 4.99219 54.7383C5.28906 54.4922 5.4375 54.1582 5.4375 53.7363C5.4375 53.2676 5.30078 52.9277 5.02734 52.7168C4.75391 52.5019 4.33789 52.3945 3.7793 52.3945H2.11523V55.1074ZM12.2109 60C12.1484 59.875 12.0977 59.6523 12.0586 59.332C11.5547 59.8554 10.9531 60.1172 10.2539 60.1172C9.62891 60.1172 9.11523 59.9414 8.71289 59.5898C8.31445 59.2344 8.11523 58.7851 8.11523 58.2422C8.11523 57.582 8.36523 57.0703 8.86523 56.707C9.36914 56.3398 10.0762 56.1562 10.9863 56.1562H12.041V55.6582C12.041 55.2793 11.9277 54.9785 11.7012 54.7558C11.4746 54.5293 11.1406 54.416 10.6992 54.416C10.3125 54.416 9.98828 54.5137 9.72656 54.709C9.46484 54.9043 9.33398 55.1406 9.33398 55.4179H8.24414C8.24414 55.1015 8.35547 54.7969 8.57812 54.5039C8.80469 54.207 9.10938 53.9726 9.49219 53.8008C9.87891 53.6289 10.3027 53.5429 10.7637 53.5429C11.4941 53.5429 12.0664 53.7265 12.4805 54.0937C12.8945 54.457 13.1094 54.959 13.125 55.5996V58.5176C13.125 59.0996 13.1992 59.5625 13.3477 59.9062V60H12.2109ZM10.4121 59.1738C10.752 59.1738 11.0742 59.0859 11.3789 58.9101C11.6836 58.7344 11.9043 58.5058 12.041 58.2246V56.9238H11.1914C9.86328 56.9238 9.19922 57.3125 9.19922 58.0898C9.19922 58.4297 9.3125 58.6953 9.53906 58.8867C9.76562 59.0781 10.0566 59.1738 10.4121 59.1738ZM20.1797 56.9004C20.1797 57.8652 19.959 58.6426 19.5176 59.2324C19.0762 59.8222 18.4785 60.1172 17.7246 60.1172C16.9551 60.1172 16.3496 59.873 15.9082 59.3847V62.4375H14.8242V53.6601H15.8145L15.8672 54.3633C16.3086 53.8164 16.9219 53.5429 17.707 53.5429C18.4688 53.5429 19.0703 53.8301 19.5117 54.4043C19.957 54.9785 20.1797 55.7773 20.1797 56.8008V56.9004ZM19.0957 56.7773C19.0957 56.0625 18.9434 55.498 18.6387 55.084C18.334 54.6699 17.916 54.4629 17.3848 54.4629C16.7285 54.4629 16.2363 54.7539 15.9082 55.3359V58.3652C16.2324 58.9433 16.7285 59.2324 17.3965 59.2324C17.916 59.2324 18.3281 59.0273 18.6328 58.6172C18.9414 58.2031 19.0957 57.5898 19.0957 56.7773ZM25.6641 53.6601H26.748V60H25.6641V55.3769L22.7402 60H21.6562V53.6601H22.7402V58.289L25.6641 53.6601ZM32.4023 60C32.3398 59.875 32.2891 59.6523 32.25 59.332C31.7461 59.8554 31.1445 60.1172 30.4453 60.1172C29.8203 60.1172 29.3066 59.9414 28.9043 59.5898C28.5059 59.2344 28.3066 58.7851 28.3066 58.2422C28.3066 57.582 28.5566 57.0703 29.0566 56.707C29.5605 56.3398 30.2676 56.1562 31.1777 56.1562H32.2324V55.6582C32.2324 55.2793 32.1191 54.9785 31.8926 54.7558C31.666 54.5293 31.332 54.416 30.8906 54.416C30.5039 54.416 30.1797 54.5137 29.918 54.709C29.6562 54.9043 29.5254 55.1406 29.5254 55.4179H28.4355C28.4355 55.1015 28.5469 54.7969 28.7695 54.5039C28.9961 54.207 29.3008 53.9726 29.6836 53.8008C30.0703 53.6289 30.4941 53.5429 30.9551 53.5429C31.6855 53.5429 32.2578 53.7265 32.6719 54.0937C33.0859 54.457 33.3008 54.959 33.3164 55.5996V58.5176C33.3164 59.0996 33.3906 59.5625 33.5391 59.9062V60H32.4023ZM30.6035 59.1738C30.9434 59.1738 31.2656 59.0859 31.5703 58.9101C31.875 58.7344 32.0957 58.5058 32.2324 58.2246V56.9238H31.3828C30.0547 56.9238 29.3906 57.3125 29.3906 58.0898C29.3906 58.4297 29.5039 58.6953 29.7305 58.8867C29.957 59.0781 30.248 59.1738 30.6035 59.1738ZM40.1953 60H39.1113V57.2929H36.1992V60H35.1094V53.6601H36.1992V56.4082H39.1113V53.6601H40.1953V60ZM46.6523 54.539H44.5254V60H43.4414V54.539H41.3555V53.6601H46.6523V54.539ZM55.1484 57.1347H56.332V58.0195H55.1484V60H54.0586V58.0195H50.1738V57.3808L53.9941 51.4687H55.1484V57.1347ZM51.4043 57.1347H54.0586V52.9512L53.9297 53.1855L51.4043 57.1347Z" fill="#9F8AE4"/>
<line x1="25.5" y1="8" x2="25.5" y2="37" stroke="#9F8AE4" stroke-width="3"/>
<path d="M46.6133 27.2021C46.2705 30.1348 45.1851 32.4009 43.3569 34.0005C41.5415 35.5874 39.1231 36.3809 36.1016 36.3809C32.8262 36.3809 30.1983 35.2065 28.2178 32.8579C26.25 30.5093 25.2661 27.3672 25.2661 23.4316V20.7656C25.2661 18.1885 25.7232 15.9224 26.6372 13.9673C27.564 12.0122 28.8716 10.5142 30.5601 9.47314C32.2486 8.41943 34.2036 7.89258 36.4253 7.89258C39.3706 7.89258 41.7319 8.71777 43.5093 10.3682C45.2866 12.0059 46.3213 14.2783 46.6133 17.1855H42.938C42.6206 14.9766 41.9287 13.377 40.8623 12.3867C39.8086 11.3965 38.3296 10.9014 36.4253 10.9014C34.0894 10.9014 32.2549 11.7646 30.9219 13.4912C29.6016 15.2178 28.9414 17.6743 28.9414 20.8608V23.5459C28.9414 26.5547 29.5698 28.9478 30.8267 30.7251C32.0835 32.5024 33.8418 33.3911 36.1016 33.3911C38.1328 33.3911 39.688 32.9341 40.7671 32.02C41.8589 31.0933 42.5825 29.4873 42.938 27.2021H46.6133Z" fill="#9F8AE4"/>
<path d="M17.4589 32.7925C14.3356 31.8489 12.0656 30.7137 10.6488 29.3869C9.24482 28.0475 8.55586 26.4131 8.58188 24.4836C8.61132 22.3002 9.50518 20.5093 11.2635 19.111C13.0346 17.7002 15.3165 17.0136 18.1092 17.0513C20.0134 17.077 21.7031 17.468 23.1784 18.2243C24.6663 18.9807 25.8078 20.0118 26.6028 21.3176C27.4104 22.6235 27.8039 24.0445 27.7832 25.5805L24.1082 25.5309C24.1308 23.8553 23.6154 22.5343 22.5619 21.5678C21.5086 20.5887 20.0109 20.086 18.0687 20.0598C16.2661 20.0355 14.8516 20.4164 13.8253 21.2024C12.8119 21.9759 12.2957 23.0672 12.2766 24.4763C12.2614 25.606 12.7245 26.5709 13.666 27.3707C14.6203 28.1581 16.2419 28.891 18.5308 29.5694C20.8324 30.2479 22.6253 30.9894 23.9095 31.7939C25.2066 32.5859 26.1591 33.5066 26.767 34.5559C27.3877 35.6054 27.6886 36.8346 27.6696 38.2437C27.6393 40.4905 26.739 42.2813 24.9689 43.6159C23.199 44.9379 20.8478 45.5791 17.9155 45.5396C16.0114 45.5139 14.2391 45.1281 12.5986 44.3823C10.9583 43.6238 9.69604 42.6038 8.81187 41.3222C7.9404 40.0408 7.51553 38.594 7.53727 36.9818L11.2122 37.0314C11.1896 38.707 11.7874 40.0419 13.0056 41.0359C14.2366 42.0175 15.8867 42.5222 17.9558 42.5501C19.8853 42.5761 21.3695 42.2025 22.4083 41.4294C23.4472 40.6562 23.9758 39.5905 23.9941 38.2322C24.0124 36.8739 23.5505 35.8202 22.6084 35.0711C21.6664 34.3093 19.9499 33.5498 17.4589 32.7925Z" fill="#9F8AE4"/>
</svg>
