<svg width="73" height="65" viewBox="0 0 73 65" fill="none" xmlns="http://www.w3.org/2000/svg">
<path d="M0.990234 62V53.4688H3.7793C4.70508 53.4688 5.40039 53.6602 5.86523 54.043C6.33398 54.4258 6.56836 54.9922 6.56836 55.7422C6.56836 56.1406 6.45508 56.4941 6.22852 56.8027C6.00195 57.1074 5.69336 57.3438 5.30273 57.5117C5.76367 57.6406 6.12695 57.8867 6.39258 58.25C6.66211 58.6094 6.79688 59.0391 6.79688 59.5391C6.79688 60.3047 6.54883 60.9062 6.05273 61.3438C5.55664 61.7812 4.85547 62 3.94922 62H0.990234ZM2.11523 58.0098V61.0801H3.97266C4.49609 61.0801 4.9082 60.9453 5.20898 60.6758C5.51367 60.4023 5.66602 60.0273 5.66602 59.5508C5.66602 58.5234 5.10742 58.0098 3.99023 58.0098H2.11523ZM2.11523 57.1074H3.81445C4.30664 57.1074 4.69922 56.9844 4.99219 56.7383C5.28906 56.4922 5.4375 56.1582 5.4375 55.7363C5.4375 55.2676 5.30078 54.9277 5.02734 54.7168C4.75391 54.502 4.33789 54.3945 3.7793 54.3945H2.11523V57.1074ZM12.2109 62C12.1484 61.875 12.0977 61.6523 12.0586 61.332C11.5547 61.8555 10.9531 62.1172 10.2539 62.1172C9.62891 62.1172 9.11523 61.9414 8.71289 61.5898C8.31445 61.2344 8.11523 60.7852 8.11523 60.2422C8.11523 59.582 8.36523 59.0703 8.86523 58.707C9.36914 58.3398 10.0762 58.1562 10.9863 58.1562H12.041V57.6582C12.041 57.2793 11.9277 56.9785 11.7012 56.7559C11.4746 56.5293 11.1406 56.416 10.6992 56.416C10.3125 56.416 9.98828 56.5137 9.72656 56.709C9.46484 56.9043 9.33398 57.1406 9.33398 57.418H8.24414C8.24414 57.1016 8.35547 56.7969 8.57812 56.5039C8.80469 56.207 9.10938 55.9727 9.49219 55.8008C9.87891 55.6289 10.3027 55.543 10.7637 55.543C11.4941 55.543 12.0664 55.7266 12.4805 56.0938C12.8945 56.457 13.1094 56.959 13.125 57.5996V60.5176C13.125 61.0996 13.1992 61.5625 13.3477 61.9062V62H12.2109ZM10.4121 61.1738C10.752 61.1738 11.0742 61.0859 11.3789 60.9102C11.6836 60.7344 11.9043 60.5059 12.041 60.2246V58.9238H11.1914C9.86328 58.9238 9.19922 59.3125 9.19922 60.0898C9.19922 60.4297 9.3125 60.6953 9.53906 60.8867C9.76562 61.0781 10.0566 61.1738 10.4121 61.1738ZM20.1797 58.9004C20.1797 59.8652 19.959 60.6426 19.5176 61.2324C19.0762 61.8223 18.4785 62.1172 17.7246 62.1172C16.9551 62.1172 16.3496 61.873 15.9082 61.3848V64.4375H14.8242V55.6602H15.8145L15.8672 56.3633C16.3086 55.8164 16.9219 55.543 17.707 55.543C18.4688 55.543 19.0703 55.8301 19.5117 56.4043C19.957 56.9785 20.1797 57.7773 20.1797 58.8008V58.9004ZM19.0957 58.7773C19.0957 58.0625 18.9434 57.498 18.6387 57.084C18.334 56.6699 17.916 56.4629 17.3848 56.4629C16.7285 56.4629 16.2363 56.7539 15.9082 57.3359V60.3652C16.2324 60.9434 16.7285 61.2324 17.3965 61.2324C17.916 61.2324 18.3281 61.0273 18.6328 60.6172C18.9414 60.2031 19.0957 59.5898 19.0957 58.7773ZM25.6641 55.6602H26.748V62H25.6641V57.377L22.7402 62H21.6562V55.6602H22.7402V60.2891L25.6641 55.6602ZM32.4023 62C32.3398 61.875 32.2891 61.6523 32.25 61.332C31.7461 61.8555 31.1445 62.1172 30.4453 62.1172C29.8203 62.1172 29.3066 61.9414 28.9043 61.5898C28.5059 61.2344 28.3066 60.7852 28.3066 60.2422C28.3066 59.582 28.5566 59.0703 29.0566 58.707C29.5605 58.3398 30.2676 58.1562 31.1777 58.1562H32.2324V57.6582C32.2324 57.2793 32.1191 56.9785 31.8926 56.7559C31.666 56.5293 31.332 56.416 30.8906 56.416C30.5039 56.416 30.1797 56.5137 29.918 56.709C29.6562 56.9043 29.5254 57.1406 29.5254 57.418H28.4355C28.4355 57.1016 28.5469 56.7969 28.7695 56.5039C28.9961 56.207 29.3008 55.9727 29.6836 55.8008C30.0703 55.6289 30.4941 55.543 30.9551 55.543C31.6855 55.543 32.2578 55.7266 32.6719 56.0938C33.0859 56.457 33.3008 56.959 33.3164 57.5996V60.5176C33.3164 61.0996 33.3906 61.5625 33.5391 61.9062V62H32.4023ZM30.6035 61.1738C30.9434 61.1738 31.2656 61.0859 31.5703 60.9102C31.875 60.7344 32.0957 60.5059 32.2324 60.2246V58.9238H31.3828C30.0547 58.9238 29.3906 59.3125 29.3906 60.0898C29.3906 60.4297 29.5039 60.6953 29.7305 60.8867C29.957 61.0781 30.248 61.1738 30.6035 61.1738ZM40.1953 62H39.1113V59.293H36.1992V62H35.1094V55.6602H36.1992V58.4082H39.1113V55.6602H40.1953V62ZM46.6523 56.5391H44.5254V62H43.4414V56.5391H41.3555V55.6602H46.6523V56.5391ZM54.1348 62H53.0449V54.7754L50.8594 55.5781V54.5938L53.9648 53.4277H54.1348V62Z" fill="#9F8AE4"/>
<line x1="11.5" y1="8" x2="11.5" y2="37" stroke="#9F8AE4" stroke-width="3"/>
<path d="M18.3935 23.7911C18.7379 20.8586 19.8246 18.5931 21.6535 16.9945C23.4698 15.4085 25.8887 14.6164 28.9102 14.618C32.1856 14.6198 34.8129 15.7955 36.7921 18.1452C38.7586 20.4949 39.7408 23.6375 39.7387 27.5731L39.7373 30.2391C39.7359 32.8162 39.2776 35.0821 38.3625 37.0367C37.4347 38.9912 36.1263 40.4886 34.4372 41.5287C32.7482 42.5815 30.7928 43.1073 28.5712 43.1061C25.6259 43.1045 23.265 42.2781 21.4885 40.6267C19.712 38.9881 18.6786 36.7151 18.3882 33.8077L22.0635 33.8097C22.3797 36.0188 23.0707 37.6188 24.1366 38.6096C25.1897 39.6004 26.6685 40.0963 28.5728 40.0973C30.9087 40.0986 32.7437 39.2363 34.0776 37.5104C35.3988 35.7846 36.0603 33.3284 36.062 30.1419L36.0635 27.4568C36.0651 24.448 35.4379 22.0546 34.1821 20.2766C32.9262 18.4986 31.1684 17.609 28.9086 17.6078C26.8773 17.6067 25.3219 18.0629 24.2423 18.9763C23.15 19.9025 22.4255 21.5081 22.0688 23.7931L18.3935 23.7911Z" fill="#9F8AE4"/>
<path d="M32.6133 27.2021C32.2705 30.1348 31.1851 32.4009 29.3569 34.0005C27.5415 35.5874 25.123 36.3809 22.1016 36.3809C18.8262 36.3809 16.1982 35.2065 14.2178 32.8579C12.25 30.5093 11.2661 27.3672 11.2661 23.4316V20.7656C11.2661 18.1885 11.7231 15.9224 12.6372 13.9673C13.564 12.0122 14.8716 10.5142 16.5601 9.47314C18.2485 8.41943 20.2036 7.89258 22.4253 7.89258C25.3706 7.89258 27.7319 8.71777 29.5093 10.3682C31.2866 12.0059 32.3213 14.2783 32.6133 17.1855H28.938C28.6206 14.9766 27.9287 13.377 26.8623 12.3867C25.8086 11.3965 24.3296 10.9014 22.4253 10.9014C20.0894 10.9014 18.2549 11.7646 16.9219 13.4912C15.6016 15.2178 14.9414 17.6743 14.9414 20.8608V23.5459C14.9414 26.5547 15.5698 28.9478 16.8267 30.7251C18.0835 32.5024 19.8418 33.3911 22.1016 33.3911C24.1328 33.3911 25.688 32.9341 26.7671 32.02C27.8589 31.0933 28.5825 29.4873 28.938 27.2021H32.6133Z" fill="#9F8AE4"/>
</svg>
